# Blender 4.4.3
# www.blender.org
mtllib bee.mtl
o Cylinder
v -0.000000 -0.011735 -1.128393
v -0.000000 0.536424 -0.872119
v -0.000000 -0.640315 0.708277
v -0.000000 0.255058 0.753054
v -0.854022 -0.415418 0.237749
v -0.734603 0.382151 0.330720
v -0.866025 -0.189681 -0.671476
v -0.741522 0.468534 -0.466837
v 0.000000 0.818519 -0.438160
v -0.000000 0.836142 0.437962
v -0.390940 0.875603 0.205406
v -0.383226 0.830265 -0.218498
v -0.000000 -0.624550 -1.014061
v -0.000000 -1.561097 -0.045840
v -0.584003 -1.249651 -0.272512
v -0.584509 -0.884221 -0.796339
v -0.000000 -1.094203 -1.483294
v -0.000000 -1.442408 -1.477415
v -0.168156 -1.307524 -1.485606
v -0.150956 -1.181274 -1.480389
v 0.000000 1.149675 -0.882056
v 0.000000 1.282482 0.718076
v -0.690037 1.264980 0.288033
v -0.695059 1.186507 -0.486362
v 0.000000 1.639462 -0.810078
v 0.000000 1.783102 0.535204
v -0.587110 1.679519 -0.472482
v 0.000000 1.980738 -0.457995
v 0.000000 2.058133 0.105693
v -0.253834 2.013778 -0.038271
v -0.240282 2.003648 -0.316041
v 0.000000 2.056595 -0.807448
v -0.000000 2.531945 0.310649
v -0.512367 2.360290 0.037731
v -0.509823 2.165471 -0.518839
v 0.000000 2.004663 -1.541533
v -0.000000 3.038115 0.300425
v -0.751470 2.702800 -0.142817
v -0.578359 2.253839 -1.077912
v 0.000000 2.448954 -1.346612
v -0.000000 3.284690 -0.069643
v 0.000000 2.990924 -0.970680
v 0.000000 3.242115 -0.542960
v -0.181117 3.175931 -0.650041
v -0.181117 3.052151 -0.863103
v -0.445050 3.098190 -0.448294
v -0.517048 3.009781 -0.466402
v -0.587724 2.931361 -0.312314
v -0.439461 3.115669 -0.326026
v -0.813264 3.334612 -1.361039
v -0.843572 3.285225 -1.357914
v -0.847658 3.374959 -1.393467
v -0.928067 3.287262 -1.398801
v -1.003921 3.273072 -0.689437
v -0.898436 3.286729 -0.775557
v -0.851579 3.356308 -0.764678
v -0.889390 3.403316 -0.697096
v -0.000000 -0.741714 -2.465102
v -0.000000 -0.737121 -2.462699
v -0.000000 -0.739841 -2.464123
v -0.000000 -0.740297 -2.464361
v -0.457959 2.888639 -1.862413
v -0.444264 2.872574 -1.849501
v -0.456332 2.852910 -1.848257
v -0.489974 2.853721 -1.864537
v -0.574137 1.743475 0.135179
v -0.316928 2.876925 -0.882413
v -0.309454 2.636752 -1.037243
v -0.498348 2.530195 -0.971962
v -0.491689 2.900136 -0.613893
v -1.382395 2.100278 -0.314421
v -1.710285 1.227526 0.379127
v -0.559175 1.603502 0.089836
v -0.633618 1.398239 0.254983
v -1.988520 2.027211 -1.274195
v -2.524191 0.673429 -0.235445
v -2.027194 0.832796 -1.784130
v -2.152862 0.465341 -1.523015
v 0.854022 -0.415418 0.237749
v 0.734603 0.382151 0.330720
v 0.866025 -0.189681 -0.671476
v 0.741522 0.468534 -0.466837
v 0.390940 0.875603 0.205406
v 0.383226 0.830265 -0.218498
v 0.584003 -1.249651 -0.272512
v 0.584509 -0.884221 -0.796339
v 0.168156 -1.307524 -1.485606
v 0.150956 -1.181274 -1.480389
v 0.690037 1.264980 0.288033
v 0.695059 1.186507 -0.486362
v 0.587110 1.679519 -0.472482
v 0.253834 2.013778 -0.038271
v 0.240282 2.003648 -0.316044
v 0.512367 2.360290 0.037728
v 0.509823 2.165481 -0.518869
v 0.751470 2.702799 -0.142829
v 0.578359 2.253884 -1.077951
v 0.181117 3.176203 -0.649944
v 0.181117 3.052316 -0.863094
v 0.445050 3.098190 -0.448294
v 0.517048 3.009781 -0.466402
v 0.587724 2.931361 -0.312314
v 0.439461 3.115669 -0.326026
v 0.813264 3.334612 -1.361039
v 0.843572 3.285225 -1.357914
v 0.847658 3.374959 -1.393467
v 0.928067 3.287262 -1.398801
v 1.003921 3.273072 -0.689437
v 0.898436 3.286729 -0.775557
v 0.851579 3.356308 -0.764678
v 0.889390 3.403316 -0.697096
v 0.457959 2.888639 -1.862413
v 0.444264 2.872574 -1.849501
v 0.456332 2.852910 -1.848257
v 0.489974 2.853721 -1.864537
v 0.574137 1.743475 0.135179
v 0.316928 2.877156 -0.882458
v 0.309454 2.636443 -1.037103
v 0.498348 2.530686 -0.972268
v 0.491689 2.900209 -0.613908
v 1.382395 2.100278 -0.314421
v 1.710285 1.227526 0.379127
v 0.559175 1.603502 0.089836
v 0.633618 1.398240 0.254983
v 1.988520 2.027211 -1.274195
v 2.524191 0.673429 -0.235445
v 2.027194 0.832796 -1.784130
v 2.152862 0.465341 -1.523015
vn -0.8718 -0.4021 -0.2797
vn -0.2135 -0.9547 -0.2072
vn -0.9000 -0.4339 0.0417
vn -0.3496 -0.9346 0.0661
vn -0.8757 0.3438 -0.3389
vn -0.6453 0.5579 0.5218
vn -0.0190 0.8645 -0.5022
vn 0.7949 0.6064 0.0229
vn -0.0243 -0.9997 0.0003
vn 0.9903 -0.0644 0.1231
vn 0.9891 -0.0681 0.1304
vn 1.0000 -0.0000 -0.0000
vn -1.0000 -0.0000 -0.0000
vn -0.3730 0.3822 -0.8455
vn 0.8097 0.1339 -0.5713
vn 0.2135 -0.9547 -0.2072
vn 0.8480 -0.5015 0.1716
vn 0.8665 0.3866 -0.3158
vn 0.5412 0.6998 0.4663
vn 0.4994 0.4312 -0.7514
vn 0.5930 0.5942 -0.5434
vn 0.0178 0.8644 -0.5024
vn -0.7949 0.6064 0.0229
vn -0.1230 -0.9924 -0.0067
vn 0.4727 0.8294 0.2978
vn 0.9864 0.1381 -0.0894
vn 0.5301 -0.6907 -0.4918
vn 0.3923 0.4885 -0.7794
vn 0.4956 -0.0356 0.8678
vn 0.9868 0.1572 0.0397
vn 0.4834 0.3555 -0.7999
vn -0.2666 -0.8176 0.5103
vn -0.0004 0.8623 -0.5064
vn 0.7796 -0.6232 0.0626
vn -0.6173 0.7709 -0.1571
vn 0.4636 -0.4872 0.7401
vn 0.5214 -0.5501 0.6523
vn 0.7040 0.5856 0.4017
vn -0.8097 0.1339 -0.5713
vn -0.6179 0.6350 -0.4636
vn -0.5058 -0.2279 -0.8320
vn 0.3407 0.7665 -0.5444
vn -0.4123 -0.3193 -0.8533
vn -0.3119 0.9467 -0.0801
vn 0.6648 0.7444 -0.0627
vn 0.5284 0.3307 0.7820
vn 0.2995 -0.9379 -0.1752
vn 0.3305 0.6758 -0.6589
vn -0.5899 -0.3150 0.7435
vn -0.8480 -0.5015 0.1717
vn 0.3484 -0.4001 0.8477
vn 0.7042 -0.6925 0.1565
vn 0.5076 0.0503 0.8601
vn -0.8597 0.3798 -0.3415
vn -0.8665 0.3865 -0.3159
vn -0.9247 0.2117 -0.3164
vn -0.9868 0.1572 0.0397
vn -0.5639 0.7130 0.4167
vn -0.5412 0.6998 0.4663
vn 0.4923 0.3830 -0.7817
vn -0.5027 0.4325 -0.7485
vn -0.6658 0.5692 -0.4825
vn -0.5929 0.5941 -0.5436
vn 0.6181 0.6350 -0.4635
vn 0.3970 0.4539 0.7977
vn -0.3611 0.9253 -0.1158
vn 0.3118 0.9468 -0.0797
vn -0.7696 0.6382 -0.0223
vn 0.4865 0.1289 -0.8641
vn 0.2298 -0.8405 -0.4907
vn 0.7511 0.6598 0.0243
vn 0.1230 -0.9924 -0.0067
vn 0.4195 0.4331 -0.7978
vn -0.5284 0.3307 0.7820
vn 0.7439 0.6647 -0.0689
vn -0.4727 0.8294 0.2978
vn -0.9864 0.1381 -0.0894
vn -0.5301 -0.6907 -0.4918
vn -0.6648 0.7444 -0.0627
vn 0.9487 -0.2951 -0.1135
vn 0.2666 -0.8176 0.5103
vn -0.3484 -0.4001 0.8477
vn -0.2994 -0.9379 -0.1751
vn -0.4295 0.5147 -0.7420
vn -0.3929 0.4896 -0.7784
vn 0.0079 0.6248 0.7807
vn 0.4855 -0.8689 -0.0963
vn 0.6470 0.4902 -0.5841
vn -0.4834 0.3555 -0.7999
vn -0.4956 -0.0356 0.8678
vn -0.4195 0.4331 -0.7978
vn -0.5214 -0.5501 0.6523
vn -0.3407 0.7665 -0.5444
vn -0.3970 0.4539 0.7977
vn -0.7742 0.6325 0.0208
vn -0.4809 0.6360 -0.6036
vn -0.9487 -0.2951 -0.1135
vn -0.4007 -0.0789 -0.9128
vn 0.8718 -0.4021 -0.2797
vn -0.4855 -0.8689 -0.0963
vn -0.4865 0.1289 -0.8641
vn -0.3555 -0.7453 -0.5641
vn -0.4636 -0.4872 0.7401
vn -0.7796 -0.6232 0.0626
vn -0.4923 0.3827 -0.7818
vn 0.9747 0.2231 -0.0103
vn -0.7042 -0.6925 0.1565
vn -0.0079 0.6248 0.7807
vn -0.9747 0.2231 -0.0103
vn 0.9000 -0.4339 0.0417
vn 0.4809 0.6360 -0.6036
vn 0.9463 0.1456 -0.2887
vn 0.3497 -0.9345 0.0661
vn -0.3305 0.6758 -0.6589
vn 0.8603 0.3789 -0.3412
vn 0.8757 0.3442 -0.3387
vn 0.9247 0.2118 -0.3163
vn -0.7439 0.6647 -0.0689
vn 0.5639 0.7130 0.4167
vn 0.6453 0.5579 0.5218
vn -0.5076 0.0503 0.8601
vn 0.6658 0.5695 -0.4821
vn -0.2298 -0.8405 -0.4907
vn 0.3618 0.9250 -0.1157
vn 0.7742 0.6325 0.0208
vn 0.6173 0.7709 -0.1571
vn 0.8342 -0.5461 0.0767
vn 0.3555 -0.7453 -0.5641
vn -0.7511 0.6598 0.0243
vn 0.0243 -0.9997 0.0003
vn -0.8342 -0.5461 0.0767
vn 0.5058 -0.2279 -0.8320
vn -0.4140 0.4014 0.8170
vn -0.9903 -0.0644 0.1231
vn -0.9891 -0.0681 0.1304
vn 0.4140 0.4014 0.8170
vn 0.4123 -0.3193 -0.8533
vn 0.5899 -0.3150 0.7435
vn 0.4007 -0.0789 -0.9128
vn 0.7696 0.6381 -0.0223
vn -0.3998 0.7753 0.4889
vn -0.6479 0.4897 -0.5835
vn 0.4302 0.5145 -0.7418
vn 0.3726 0.3824 -0.8455
vn 0.3998 0.7753 0.4889
vn -0.7040 0.5856 0.4017
vn -0.9463 0.1456 -0.2887
vt 0.166667 0.500000
vt 0.333333 0.500000
vt 0.166667 1.000000
vt -0.000000 1.000000
vt 0.333333 1.000000
vt 0.262705 1.000000
vt 0.166667 1.000000
vt 0.500000 1.000000
vt 0.362377 1.000000
vt 0.314251 1.000000
vt -0.000000 0.500000
vt 0.500000 0.500000
vt 0.071528 1.000000
vt 0.128466 1.000000
vt 0.314251 1.000000
vt 0.116046 1.000000
vt 0.000000 1.000000
vt 1.000000 1.000000
vt 1.000000 0.000000
vt 0.000000 0.000000
vt 0.281077 1.000000
vt 0.383671 1.000000
s 0
usemtl bee_black
f 31/3/2 32/4/2 28/4/2
f 56/5/8 52/9/8 57/9/8
f 55/10/9 53/5/9 51/10/9
f 20/1/10 58/11/10 61/1/10
f 19/2/11 61/1/11 60/2/11
f 18/12/12 60/2/12 59/12/12
f 59/12/13 61/1/13 58/11/13
f 32/4/16 93/3/16 28/4/16
f 106/9/23 110/5/23 111/9/23
f 109/10/24 107/5/24 108/5/24
f 88/1/25 58/11/25 17/11/25
f 87/2/26 61/1/26 88/1/26
f 18/12/27 60/2/27 87/2/27
f 65/5/32 64/15/32 51/10/32 53/5/32
f 100/5/35 103/9/35 111/9/35 110/5/35
f 85/2/37 79/2/37 3/12/37 14/12/37
f 101/15/41 100/5/41 110/5/41 109/10/41
f 82/3/42 2/4/42 9/4/42 84/3/42
f 112/9/43 115/5/43 114/15/43 113/5/43
f 26/8/46 22/8/46 89/5/46 116/5/46
f 105/10/49 104/5/49 113/5/49 114/15/49
f 29/8/51 92/5/51 94/5/51 33/8/51
f 92/5/52 93/3/52 95/3/52 94/5/52
f 10/8/65 4/8/65 80/5/65 83/5/65
f 104/5/68 106/9/68 112/9/68 113/5/68
f 90/3/69 21/4/69 25/4/69 91/3/69
f 108/5/70 102/5/70 101/15/70 109/10/70
f 56/5/71 50/5/71 52/9/71
f 55/10/72 54/5/72 53/5/72
f 112/9/73 106/9/73 107/5/73 115/5/73
f 26/8/74 66/5/74 23/5/74 22/8/74
f 111/9/75 108/5/75 107/5/75 106/9/75
f 20/1/76 17/11/76 58/11/76
f 19/2/77 20/1/77 61/1/77
f 18/12/78 19/2/78 60/2/78
f 59/12/13 60/2/13 61/1/13
f 81/1/80 79/2/80 85/2/80 86/1/80
f 115/5/81 107/5/81 105/10/81 114/15/81
f 34/5/82 30/5/82 29/8/82 33/8/82
f 62/9/91 65/5/91 53/5/91 52/9/91
f 15/2/92 14/12/92 3/12/92 5/2/92
f 9/4/93 2/4/93 8/3/93 12/3/93
f 10/8/94 11/5/94 6/5/94 4/8/94
f 12/3/95 8/3/95 6/5/95 11/5/95
f 15/2/97 5/2/97 7/1/97 16/1/97
f 13/11/98 16/1/98 7/1/98 1/11/98
f 25/4/101 21/4/101 24/3/101 27/3/101
f 116/21/106 89/5/106 90/3/106 91/3/106
f 35/3/107 31/3/107 30/5/107 34/5/107
f 66/21/109 27/3/109 24/3/109 23/5/109
f 53/5/118 54/5/118 57/9/118 52/9/118
f 54/5/123 55/10/123 47/15/123 48/5/123
f 80/5/125 82/3/125 84/3/125 83/5/125
f 57/9/126 49/9/126 46/5/126 56/5/126
f 50/5/127 56/5/127 55/10/127 51/10/127
f 106/9/129 104/5/129 110/5/129
f 109/10/130 105/10/130 107/5/130
f 109/10/131 110/5/131 104/5/131 105/10/131
f 56/5/132 46/5/132 47/15/132 55/10/132
f 57/9/133 54/5/133 48/5/133 49/9/133
f 88/1/134 61/1/134 58/11/134
f 87/2/135 60/2/135 61/1/135
f 111/9/136 103/9/136 102/5/136 108/5/136
f 62/9/137 63/5/137 64/15/137 65/5/137
f 63/5/138 50/5/138 51/10/138 64/15/138
f 13/11/139 1/11/139 81/1/139 86/1/139
f 62/9/140 52/9/140 50/5/140 63/5/140
usemtl bee_yellow
f 16/1/1 19/2/1 15/2/1
f 35/3/3 38/5/3 39/3/3
f 32/4/4 39/3/4 36/4/4
f 70/6/5 69/7/5 38/5/5
f 37/8/6 49/9/6 48/5/6
f 43/8/7 45/3/7 44/5/7
f 67/3/14 45/3/14 42/4/14
f 86/1/15 87/2/15 88/1/15
f 95/3/17 96/5/17 94/5/17
f 96/5/18 120/6/18 102/5/18
f 103/9/19 41/8/19 37/8/19
f 118/13/20 119/14/20 97/3/20
f 100/5/21 101/15/21 120/6/21
f 99/3/22 43/8/22 98/5/22
f 42/4/28 117/3/28 118/16/28
f 4/8/29 3/12/29 79/2/29 80/5/29
f 82/3/30 80/5/30 79/2/30 81/1/30
f 82/3/31 81/1/31 1/11/31 2/4/31
f 99/3/33 42/4/33 45/3/33 43/8/33
f 89/5/34 83/5/34 84/3/34 90/3/34
f 22/8/36 10/8/36 83/5/36 89/5/36
f 16/1/39 20/1/39 19/2/39
f 44/5/40 45/3/40 70/6/40 46/5/40
f 43/8/44 44/5/44 49/9/44 41/8/44
f 92/5/45 116/5/45 91/3/45 93/3/45
f 32/4/47 97/3/47 95/3/47 93/3/47
f 91/3/48 25/4/48 28/4/48 93/3/48
f 35/3/50 34/5/50 38/5/50
f 37/8/53 33/8/53 94/5/53 96/5/53
f 69/7/54 39/3/54 38/5/54
f 38/5/55 48/5/55 70/6/55
f 48/5/56 47/15/56 70/6/56
f 8/3/57 7/1/57 5/2/57 6/5/57
f 48/5/58 38/5/58 37/8/58
f 37/8/59 41/8/59 49/9/59
f 40/4/60 118/13/60 97/3/60 36/4/60
f 39/3/61 69/14/61 68/13/61
f 45/3/62 67/3/62 70/6/62
f 70/6/63 47/15/63 46/5/63
f 98/5/64 100/5/64 120/6/64 99/3/64
f 44/5/66 46/5/66 49/9/66
f 43/8/67 41/8/67 103/9/67 98/5/67
f 30/5/79 31/3/79 27/3/79 66/5/79
f 35/3/83 39/3/83 32/4/83 31/3/83
f 42/4/84 40/4/84 68/16/84
f 68/16/85 67/3/85 42/4/85
f 85/2/87 14/12/87 18/12/87 87/2/87
f 1/11/89 7/1/89 8/3/89 2/4/89
f 5/2/90 3/12/90 4/8/90 6/5/90
f 20/1/96 16/1/96 13/11/96 17/11/96
f 86/1/99 85/2/99 87/2/99
f 18/12/100 14/12/100 15/2/100 19/2/100
f 24/3/102 21/4/102 9/4/102 12/3/102
f 22/8/103 23/5/103 11/5/103 10/8/103
f 23/5/104 24/3/104 12/3/104 11/5/104
f 39/3/105 68/13/105 40/4/105 36/4/105
f 95/3/110 97/3/110 96/5/110
f 88/1/111 17/11/111 13/11/111 86/1/111
f 32/4/113 36/4/113 97/3/113
f 28/4/114 25/4/114 27/3/114 31/3/114
f 96/5/115 97/3/115 119/7/115
f 119/7/116 120/6/116 96/5/116
f 120/6/117 101/15/117 102/5/117
f 37/8/119 96/5/119 102/5/119
f 102/5/120 103/9/120 37/8/120
f 37/8/121 38/5/121 34/5/121 33/8/121
f 120/6/122 117/3/122 99/3/122
f 103/9/124 100/5/124 98/5/124
f 90/3/128 84/3/128 9/4/128 21/4/128
f 30/5/141 66/22/141 26/8/141 29/8/141
f 118/16/143 40/4/143 42/4/143
f 42/4/144 99/3/144 117/3/144
f 26/8/145 116/22/145 92/5/145 29/8/145
usemtl bee_wing
f 126/17/38 125/18/38 121/18/38 122/17/38
f 121/18/86 123/19/86 124/20/86 122/17/86
f 71/18/108 72/17/108 74/20/108 73/19/108
f 128/17/112 127/18/112 125/18/112 126/17/112
f 76/17/146 72/17/146 71/18/146 75/18/146
f 78/17/147 76/17/147 75/18/147 77/18/147
usemtl bee_eye
f 119/14/88 118/16/88 117/3/88 120/6/88
f 69/14/142 70/6/142 67/3/142 68/16/142
